<?xml version="1.0" standalone="no"?>
<!DOCTYPE svg PUBLIC "-//W3C//DTD SVG 20010904//EN"
 "http://www.w3.org/TR/2001/REC-SVG-20010904/DTD/svg10.dtd">
<svg version="1.0" xmlns="http://www.w3.org/2000/svg"
 width="1080.000000pt" height="1080.000000pt" viewBox="0 0 1080.000000 1080.000000"
 preserveAspectRatio="xMidYMid meet">

<g transform="translate(0.000000,1080.000000) scale(0.100000,-0.100000)"
fill="#000000" stroke="none">
<path d="M4635 9114 c-383 -41 -772 -198 -1069 -431 -105 -83 -262 -245 -342
-353 -95 -129 -148 -217 -242 -405 -145 -290 -263 -482 -302 -491 -736 -160
-1349 -449 -1820 -859 -163 -141 -245 -257 -245 -346 0 -114 101 -142 425
-120 366 26 641 90 896 211 l102 48 -24 -52 c-44 -95 -21 -168 64 -198 43 -14
220 -17 393 -5 l116 8 7 -61 c43 -375 300 -719 651 -867 l85 -36 -22 -28 c-13
-15 -84 -94 -158 -176 -74 -82 -207 -230 -295 -329 -481 -539 -770 -751 -1102
-809 -167 -29 -308 -13 -438 49 -186 89 -324 247 -370 423 -19 71 -19 201 -1
268 25 96 68 167 151 251 100 101 202 163 349 209 356 113 697 37 814 -182
109 -206 15 -466 -213 -585 -196 -102 -408 -114 -625 -37 -114 41 -134 45
-128 28 11 -36 221 -104 358 -115 146 -12 340 38 462 120 173 114 269 316 240
503 -33 209 -185 361 -422 424 -124 33 -308 31 -441 -4 -254 -67 -458 -224
-559 -432 -56 -114 -73 -198 -66 -315 10 -177 65 -300 191 -426 265 -267 643
-306 1037 -108 224 113 498 356 843 749 156 178 298 336 397 443 l58 62 92
-16 c51 -9 94 -18 96 -19 2 -2 -34 -53 -79 -115 -313 -431 -499 -823 -499
-1052 0 -134 67 -190 168 -139 84 43 128 92 715 793 422 504 601 703 881 984
230 230 425 409 434 399 3 -2 -26 -39 -64 -81 -683 -759 -1087 -1378 -1146
-1758 -21 -138 14 -277 84 -329 147 -109 320 -36 614 258 158 157 190 197 179
216 -5 7 -58 -40 -145 -128 -229 -233 -358 -323 -464 -323 -73 0 -91 21 -90
104 4 265 343 931 912 1789 79 121 148 215 152 210 4 -4 48 -69 98 -143 226
-337 320 -439 454 -493 71 -28 211 -51 255 -42 15 4 38 8 51 11 13 2 20 9 17
14 -4 6 -31 8 -69 4 -140 -14 -303 43 -400 141 -69 68 -153 180 -288 378 -84
125 -105 163 -98 176 6 9 31 45 55 80 25 35 44 69 42 74 -7 23 -28 16 -92 -34
-59 -45 -69 -49 -77 -35 -34 60 -226 340 -299 436 -200 263 -471 518 -666 627
-35 19 -63 37 -63 40 0 3 20 55 44 116 24 62 46 119 49 128 7 20 57 27 237 36
115 5 199 1 394 -20 13 -1 22 8 31 34 l13 37 -61 6 c-67 7 -388 -8 -496 -24
-36 -5 -73 -10 -82 -10 -14 0 -8 29 36 183 30 100 65 209 80 242 163 370 402
657 722 868 106 70 229 135 238 125 3 -3 8 -21 11 -39 5 -34 5 -34 -66 -63
-91 -37 -232 -125 -288 -179 -52 -51 -86 -118 -78 -152 17 -67 134 -74 245
-15 117 63 224 201 238 310 6 40 9 44 60 67 42 20 52 28 43 38 -9 11 -17 11
-45 -1 -19 -8 -38 -14 -43 -14 -12 0 -33 73 -24 81 14 13 204 80 295 104 130
34 249 53 408 65 343 26 591 -69 633 -242 6 -27 3 -30 -81 -68 -126 -59 -222
-121 -281 -184 -79 -83 -93 -138 -44 -176 37 -30 125 -24 205 13 118 54 235
203 252 322 5 33 13 46 28 51 66 21 89 35 77 49 -10 12 -17 12 -52 -1 -22 -8
-42 -14 -43 -14 -2 0 -9 17 -16 38 -40 123 -162 202 -360 233 -97 15 -425 6
-544 -16 -129 -23 -303 -70 -411 -112 l-93 -35 -25 28 c-36 43 -121 90 -206
115 -64 18 -104 22 -275 24 -110 2 -218 1 -240 -1z m443 -45 c42 -10 100 -30
128 -44 51 -25 133 -89 124 -97 -3 -3 -36 -22 -75 -43 -291 -157 -529 -368
-706 -627 -35 -51 -116 -194 -180 -318 -64 -124 -141 -265 -171 -315 -30 -49
-68 -112 -84 -138 -16 -26 -38 -50 -49 -52 -283 -63 -422 -102 -673 -191 -216
-76 -600 -266 -787 -390 -33 -22 -35 -25 38 86 58 89 152 280 197 402 l32 87
67 8 c90 11 442 8 514 -4 l58 -10 15 35 c8 19 12 38 8 41 -11 12 -365 1 -500
-14 -75 -9 -139 -14 -141 -11 -11 11 92 345 137 447 118 266 290 500 502 683
171 148 336 250 540 335 330 138 759 193 1006 130z m-2408 -1675 c0 -11 -100
-146 -189 -254 -311 -380 -653 -662 -1006 -831 -140 -67 -239 -102 -385 -135
-108 -25 -325 -43 -374 -30 -91 23 -87 126 10 258 20 27 82 90 138 140 447
402 1032 693 1673 833 120 26 133 28 133 19z m1380 1 c0 -3 -25 -39 -56 -81
-51 -69 -58 -75 -83 -69 -67 17 -145 25 -256 26 l-120 1 60 19 c111 35 393
104 443 108 6 1 12 -1 12 -4z m-195 -166 l65 -11 -19 -27 c-50 -69 -222 -259
-337 -371 -289 -281 -588 -479 -883 -584 l-74 -27 7 73 c47 497 432 896 925
958 78 10 225 5 316 -11z m396 -160 c324 -223 553 -473 842 -920 l75 -116
-100 -88 c-103 -91 -450 -439 -598 -600 -124 -135 -423 -484 -620 -725 -241
-295 -457 -546 -517 -601 -59 -56 -89 -67 -111 -45 -15 14 -12 25 27 123 132
330 335 695 659 1188 229 349 386 560 559 751 61 68 83 98 75 106 -15 15 -70
-15 -221 -121 -250 -174 -541 -421 -812 -688 l-156 -154 -69 26 c-299 113
-555 395 -633 701 -22 82 -41 204 -35 215 2 4 27 9 56 13 240 31 527 120 718
223 300 161 552 415 705 712 20 39 40 71 44 71 4 0 55 -32 112 -71z m-1335
-102 c-190 -188 -306 -428 -324 -675 l-7 -87 -40 -13 c-135 -44 -418 -67 -474
-37 -50 26 -55 87 -14 172 29 58 43 72 183 175 47 35 137 115 200 178 87 88
141 132 225 184 90 57 333 196 342 196 2 0 -39 -42 -91 -93z m1281 -1149
c-188 -199 -271 -291 -385 -430 -86 -105 -87 -106 -129 -105 -58 2 -96 -33
-91 -83 3 -19 7 -42 9 -50 3 -11 -5 -13 -36 -12 -57 4 -145 22 -145 30 0 20
377 373 590 553 139 118 320 259 333 259 5 0 -61 -73 -146 -162z"/>
<path d="M5876 6312 c-16 -4 -31 -13 -34 -21 -4 -11 5 -12 44 -6 178 27 333
-19 462 -137 l41 -37 -74 -74 c-82 -82 -137 -179 -155 -276 -57 -301 144 -553
525 -657 92 -26 115 -28 278 -28 97 0 177 -1 177 -1 0 -8 -132 -290 -185 -397
-178 -355 -350 -575 -554 -706 -260 -168 -665 -219 -960 -121 -283 92 -441
254 -458 465 -20 267 165 542 462 686 157 76 230 92 420 92 178 1 250 -14 368
-76 152 -81 223 -242 183 -419 -43 -193 -200 -336 -441 -401 -63 -16 -108 -21
-210 -21 -144 0 -238 17 -337 58 -79 34 -108 41 -108 26 0 -6 26 -24 58 -39
327 -164 774 -90 973 160 199 251 132 585 -146 730 -115 60 -199 79 -365 85
-164 5 -262 -10 -406 -66 -203 -79 -384 -231 -462 -391 -58 -118 -73 -185 -73
-311 1 -141 30 -238 104 -340 157 -220 482 -344 846 -325 368 20 653 134 918
366 191 167 345 404 533 824 l75 169 95 27 c225 63 441 184 631 352 214 188
323 425 260 565 -32 70 -105 93 -219 69 -114 -24 -238 -93 -384 -213 l-76 -63
-59 61 c-307 322 -776 417 -1146 232 l-68 -34 -20 26 c-34 42 -147 117 -218
143 -50 19 -90 25 -166 28 -55 1 -113 0 -129 -4z m1148 -112 c146 -21 334
-100 455 -193 66 -51 171 -155 171 -169 0 -6 -31 -45 -68 -87 -128 -143 -254
-323 -347 -495 -35 -64 -53 -88 -72 -92 -53 -14 -306 3 -388 26 -86 23 -210
78 -289 127 -78 49 -173 150 -208 221 -53 108 -50 258 7 372 108 214 415 335
739 290z m1251 -104 c106 -45 79 -240 -59 -423 -139 -184 -430 -376 -680 -447
-112 -33 -130 -33 -120 -3 30 95 258 500 295 523 12 7 24 -7 84 -108 39 -66
65 -95 65 -73 0 10 -40 85 -81 152 -39 64 -40 66 -23 91 31 47 155 161 228
210 73 48 180 91 229 92 15 0 43 -6 62 -14z"/>
<path d="M5843 3442 c-54 -22 -96 -60 -125 -114 -19 -36 -23 -58 -23 -138 0
-83 3 -101 25 -139 68 -121 233 -160 317 -76 l33 33 0 -34 c0 -31 3 -34 30
-34 l30 0 0 125 0 125 -90 0 c-89 0 -90 0 -90 -25 0 -22 4 -24 58 -27 57 -3
57 -3 54 -32 -8 -71 -53 -115 -125 -123 -102 -12 -177 78 -177 212 0 143 87
233 205 211 42 -8 91 -55 100 -96 6 -26 11 -30 40 -30 l34 0 -14 48 c-33 109
-163 162 -282 114z"/>
<path d="M4860 3194 l0 -256 129 4 c122 3 131 5 177 34 30 18 60 48 79 78 28
46 30 56 30 145 0 107 -12 141 -69 193 -45 42 -112 58 -238 58 l-108 0 0 -256z
m271 180 c54 -32 79 -86 79 -172 0 -87 -15 -127 -63 -169 -40 -35 -89 -47
-172 -41 l-50 3 -3 190 c-1 104 0 196 3 203 8 23 162 12 206 -14z"/>
<path d="M5460 3195 l0 -255 30 0 30 0 0 255 0 255 -30 0 -30 0 0 -255z"/>
<path d="M6320 3195 l0 -255 35 0 35 0 0 255 0 255 -35 0 -35 0 0 -255z"/>
<path d="M6550 3425 c0 -25 1 -25 90 -25 l90 0 0 -230 0 -230 30 0 30 0 0 230
0 230 90 0 c89 0 90 0 90 25 l0 25 -210 0 -210 0 0 -25z"/>
<path d="M7245 3433 c-15 -38 -175 -485 -175 -489 0 -2 15 -4 33 -4 33 0 33 1
62 90 l29 91 95 -3 94 -3 30 -87 29 -88 35 0 c19 0 33 4 31 8 -1 5 -41 119
-88 255 l-85 247 -41 0 c-31 0 -44 -5 -49 -17z m115 -250 c0 -9 -20 -13 -74
-13 l-75 0 34 100 c18 55 37 105 41 112 7 11 74 -169 74 -199z"/>
<path d="M7660 3195 l0 -255 170 0 170 0 0 25 0 25 -135 0 -135 0 0 230 0 230
-35 0 -35 0 0 -255z"/>
<path d="M4563 2773 c-100 -42 -146 -120 -146 -248 0 -59 5 -93 20 -126 78
-177 334 -186 426 -16 18 35 22 58 22 142 0 105 -11 141 -59 193 -56 62 -182
88 -263 55z m184 -61 c50 -36 68 -84 68 -187 0 -150 -46 -210 -162 -210 -73 0
-105 19 -143 86 -21 37 -25 57 -24 124 0 108 34 175 104 204 39 17 123 8 157
-17z"/>
<path d="M7053 2773 c-100 -42 -146 -120 -146 -248 0 -59 5 -93 20 -126 78
-177 334 -186 426 -16 18 35 22 58 22 142 0 105 -11 141 -59 193 -56 62 -182
88 -263 55z m184 -61 c50 -36 68 -84 68 -187 0 -150 -46 -210 -162 -210 -73 0
-105 19 -143 86 -21 37 -25 57 -24 124 0 108 34 175 104 204 39 17 123 8 157
-17z"/>
<path d="M2970 2525 l0 -255 35 0 35 0 0 255 0 255 -35 0 -35 0 0 -255z"/>
<path d="M3240 2526 l0 -256 36 0 35 0 -3 220 c-2 149 0 216 7 206 6 -7 60
-106 120 -220 l110 -206 48 0 47 0 0 255 0 255 -30 0 -30 0 -2 -219 -3 -219
-116 217 -116 216 -51 3 -52 3 0 -255z"/>
<path d="M3850 2525 l0 -255 30 0 30 0 0 223 0 222 118 -220 118 -220 47 -3
47 -3 0 255 0 256 -30 0 -30 0 -2 -217 -3 -217 -115 217 -115 217 -47 0 -48 0
0 -255z"/>
<path d="M5022 2771 c2 -5 41 -119 88 -255 l85 -246 41 0 c31 0 44 5 49 18 12
30 175 485 175 489 0 1 -15 3 -33 3 l-32 0 -75 -225 c-41 -124 -77 -225 -80
-225 -3 0 -39 101 -80 225 l-75 225 -33 0 c-19 0 -32 -4 -30 -9z"/>
<path d="M5685 2648 c-26 -73 -67 -188 -91 -255 l-44 -123 33 0 c33 0 33 1 62
90 l29 90 96 0 96 0 29 -90 29 -90 34 0 c23 0 33 4 30 13 -3 6 -42 121 -88
255 l-83 242 -42 0 -42 0 -48 -132z m129 -42 l34 -106 -74 0 c-41 0 -74 4 -74
8 0 7 48 154 65 201 8 22 14 10 49 -103z"/>
<path d="M6100 2755 c0 -25 1 -25 90 -25 l90 0 0 -230 0 -230 30 0 30 0 0 230
0 230 90 0 c89 0 90 0 90 25 l0 25 -210 0 -210 0 0 -25z"/>
<path d="M6670 2525 l0 -255 30 0 30 0 0 255 0 255 -30 0 -30 0 0 -255z"/>
<path d="M7560 2525 l0 -255 30 0 30 0 2 220 3 220 117 -217 116 -218 51 -3
51 -3 0 255 0 256 -30 0 -30 0 -2 -222 -3 -223 -120 223 -119 222 -48 0 -48 0
0 -255z"/>
</g>
</svg>
